<svg xmlns="http://www.w3.org/2000/svg" viewBox="0 0 24 24" fill="#336791">
  <path d="M23.111 5.441c-.21-1.077-.84-1.077-1.47-1.077-.42 0-.84.21-1.26.42-.42.21-.84.42-1.26.42-.42 0-.84-.21-1.26-.42-.42-.21-.84-.42-1.26-.42-.63 0-1.26 0-1.47 1.077-.21 1.077.21 2.154.63 3.231.42 1.077.84 2.154.84 3.231 0 1.077-.42 2.154-.84 3.231-.42 1.077-.84 2.154-.63 3.231.21 1.077.84 1.077 1.47 1.077.42 0 .84-.21 1.26-.42.42-.21.84-.42 1.26-.42.42 0 .84.21 1.26.42.42.21.84.42 1.26.42.63 0 1.26 0 1.47-1.077.21-1.077-.21-2.154-.63-3.231-.42-1.077-.84-2.154-.84-3.231 0-1.077.42-2.154.84-3.231.42-1.077.84-2.154.63-3.231z"/>
  <path d="M12 2C6.48 2 2 6.48 2 12s4.48 10 10 10 10-4.48 10-10S17.52 2 12 2zm0 18c-4.41 0-8-3.59-8-8s3.59-8 8-8 8 3.59 8 8-3.59 8-8 8z"/>
</svg>